<svg width="53" height="53" viewBox="0 0 53 53" fill="none" xmlns="http://www.w3.org/2000/svg">
<g filter="url(#filter0_d_54_12)">
<circle cx="26.5" cy="22.5" r="22.5" fill="white"/>
</g>
<path d="M26.4868 33.39C25.2168 33.39 24.0768 33.095 23.0668 32.505C22.0668 31.915 21.2768 31.125 20.6968 30.135C20.1168 29.145 19.8268 28.045 19.8268 26.835H22.9468C22.9468 27.465 23.0968 28.04 23.3968 28.56C23.6968 29.08 24.1118 29.495 24.6418 29.805C25.1718 30.115 25.7868 30.27 26.4868 30.27C27.1168 30.27 27.7018 30.115 28.2418 29.805C28.7818 29.495 29.2168 29.08 29.5468 28.56C29.8768 28.04 30.0418 27.465 30.0418 26.835C30.0418 26.035 29.8318 25.365 29.4118 24.825C28.9918 24.285 28.4068 23.885 27.6568 23.625C26.9168 23.355 26.0618 23.22 25.0918 23.22V20.76C26.4118 20.76 27.4668 20.5 28.2568 19.98C29.0468 19.46 29.4418 18.685 29.4418 17.655C29.4418 17.115 29.2968 16.625 29.0068 16.185C28.7268 15.735 28.3518 15.38 27.8818 15.12C27.4218 14.85 26.9268 14.715 26.3968 14.715C25.8468 14.715 25.3168 14.85 24.8068 15.12C24.3068 15.38 23.8968 15.735 23.5768 16.185C23.2568 16.625 23.0968 17.115 23.0968 17.655H19.9768C19.9768 16.825 20.1468 16.045 20.4868 15.315C20.8368 14.575 21.3068 13.93 21.8968 13.38C22.4968 12.82 23.1768 12.385 23.9368 12.075C24.7068 11.755 25.5118 11.595 26.3518 11.595C27.4518 11.595 28.4718 11.87 29.4118 12.42C30.3618 12.96 31.1218 13.69 31.6918 14.61C32.2718 15.52 32.5618 16.535 32.5618 17.655C32.5618 18.545 32.3418 19.39 31.9018 20.19C31.4718 20.98 30.8718 21.54 30.1018 21.87C30.7718 22.11 31.3318 22.49 31.7818 23.01C32.2418 23.52 32.5868 24.11 32.8168 24.78C33.0468 25.44 33.1618 26.125 33.1618 26.835C33.1618 28.035 32.8568 29.135 32.2468 30.135C31.6368 31.125 30.8218 31.915 29.8018 32.505C28.7918 33.095 27.6868 33.39 26.4868 33.39Z" fill="#2D4909"/>
<defs>
<filter id="filter0_d_54_12" x="0" y="0" width="53" height="53" filterUnits="userSpaceOnUse" color-interpolation-filters="sRGB">
<feFlood flood-opacity="0" result="BackgroundImageFix"/>
<feColorMatrix in="SourceAlpha" type="matrix" values="0 0 0 0 0 0 0 0 0 0 0 0 0 0 0 0 0 0 127 0" result="hardAlpha"/>
<feOffset dy="4"/>
<feGaussianBlur stdDeviation="2"/>
<feComposite in2="hardAlpha" operator="out"/>
<feColorMatrix type="matrix" values="0 0 0 0 0 0 0 0 0 0 0 0 0 0 0 0 0 0 0.25 0"/>
<feBlend mode="normal" in2="BackgroundImageFix" result="effect1_dropShadow_54_12"/>
<feBlend mode="normal" in="SourceGraphic" in2="effect1_dropShadow_54_12" result="shape"/>
</filter>
</defs>
</svg>
