<svg width="30" height="30" viewBox="0 0 30 30" fill="none" xmlns="http://www.w3.org/2000/svg">
<path d="M24.5043 9.66937L15.72 18.315C15.5283 18.5046 15.2696 18.611 15 18.611C14.7304 18.611 14.4716 18.5046 14.28 18.315L5.49372 9.67124C5.30087 9.48173 5.0413 9.37553 4.77091 9.37553C4.50052 9.37553 4.24095 9.48173 4.0481 9.67124C3.95313 9.76382 3.87766 9.87448 3.82613 9.99669C3.7746 10.1189 3.74805 10.2502 3.74805 10.3828C3.74805 10.5154 3.7746 10.6467 3.82613 10.7689C3.87766 10.8911 3.95313 11.0018 4.0481 11.0944L12.8306 19.7381C13.4091 20.3061 14.1874 20.6243 14.9981 20.6243C15.8088 20.6243 16.5871 20.3061 17.1656 19.7381L25.9481 11.0944C26.0434 11.0018 26.1191 10.891 26.1708 10.7686C26.2225 10.6462 26.2491 10.5147 26.2491 10.3819C26.2491 10.249 26.2225 10.1175 26.1708 9.99513C26.1191 9.87275 26.0434 9.76198 25.9481 9.66937C25.7552 9.47985 25.4957 9.37366 25.2253 9.37366C24.9549 9.37366 24.6953 9.47985 24.5025 9.66937" fill="white"/>
</svg>
