<svg width="35" height="35" viewBox="0 0 35 35" fill="none" xmlns="http://www.w3.org/2000/svg">
<path d="M17.5014 2.91669C25.5558 2.91669 32.0848 9.44565 32.0848 17.5C32.0848 25.5544 25.5558 32.0834 17.5014 32.0834C14.9242 32.0878 12.3923 31.4057 10.166 30.1073L2.92395 32.0834L4.89561 24.8384C3.59618 22.6114 2.9136 20.0784 2.91811 17.5C2.91811 9.44565 9.44707 2.91669 17.5014 2.91669ZM12.5314 10.6459L12.2398 10.6575C12.0512 10.6705 11.867 10.72 11.6973 10.8034C11.5392 10.8931 11.3948 11.005 11.2685 11.1359C11.0935 11.3006 10.9944 11.4436 10.8879 11.5821C10.3485 12.2834 10.0581 13.1444 10.0625 14.0292C10.0654 14.7438 10.2521 15.4394 10.5437 16.0898C11.1402 17.4052 12.1217 18.7979 13.4167 20.0886C13.7287 20.3992 14.035 20.7113 14.3646 21.0015C15.9737 22.4181 17.8912 23.4398 19.9646 23.9852L20.7929 24.1121C21.0627 24.1267 21.3325 24.1063 21.6037 24.0931C22.0284 24.0708 22.443 23.9558 22.8185 23.7563C23.0093 23.6576 23.1957 23.5506 23.3771 23.4354C23.3771 23.4354 23.4388 23.3936 23.5594 23.3042C23.7562 23.1584 23.8773 23.0548 24.0406 22.8842C24.1631 22.7578 24.2652 22.611 24.3469 22.4438C24.4606 22.2061 24.5744 21.7525 24.621 21.3748C24.656 21.0861 24.6458 20.9286 24.6414 20.8309C24.6356 20.6748 24.5058 20.5129 24.3644 20.4444L23.5156 20.0638C23.5156 20.0638 22.2469 19.5111 21.471 19.1581C21.3898 19.1228 21.3028 19.1025 21.2144 19.0984C21.1146 19.0879 21.0137 19.0991 20.9186 19.131C20.8235 19.163 20.7364 19.215 20.6631 19.2836C20.6558 19.2806 20.5581 19.3638 19.5037 20.6413C19.4432 20.7226 19.3599 20.784 19.2643 20.8178C19.1687 20.8516 19.0652 20.8561 18.9671 20.8309C18.872 20.8055 18.7789 20.7734 18.6885 20.7346C18.5077 20.6588 18.445 20.6296 18.321 20.5771C17.4838 20.2124 16.7088 19.7188 16.0242 19.1144C15.8404 18.954 15.6698 18.779 15.4948 18.6098C14.9211 18.0603 14.4211 17.4388 14.0073 16.7606L13.9212 16.6221C13.8604 16.5285 13.8105 16.4282 13.7725 16.3231C13.7171 16.1088 13.8614 15.9367 13.8614 15.9367C13.8614 15.9367 14.2158 15.5488 14.3806 15.3388C14.541 15.1346 14.6767 14.9363 14.7642 14.7948C14.9362 14.5177 14.9902 14.2334 14.8998 14.0131C14.4914 13.0156 14.0695 12.0235 13.6339 11.0367C13.5479 10.8413 13.2927 10.7013 13.0608 10.6736C12.9821 10.6638 12.9033 10.6561 12.8246 10.6502C12.6288 10.639 12.4324 10.6409 12.2369 10.6561L12.5314 10.6459Z" fill="white"/>
</svg>
