<svg width="14" height="21" viewBox="0 0 14 21" fill="none" xmlns="http://www.w3.org/2000/svg">
<path d="M12.8994 4.77051C13.3058 5.54867 13.5 6.30917 13.5 7.1416C13.5 8.67698 12.878 10.16 11.2373 11.8975C10.2789 12.9063 9.35152 13.9858 8.66211 15.1045C7.97935 16.2124 7.50766 17.394 7.5 18.6113C7.09399 17.8335 6.90039 17.0733 6.90039 16.2412C6.90045 14.7056 7.52192 13.2221 9.16309 11.4844L9.16211 11.4834C10.1202 10.4748 11.049 9.39671 11.7383 8.27832C12.4212 7.17016 12.892 5.98809 12.8994 4.77051ZM9.19922 1.6709C9.60545 2.44886 9.79974 3.20882 9.7998 4.04102C9.7998 5.5764 9.17769 7.05949 7.53711 8.79688C6.57873 9.8057 5.65136 10.8852 4.96191 12.0039C4.27903 13.112 3.80736 14.2942 3.7998 15.5117C3.39374 14.7339 3.20022 13.9737 3.2002 13.1416C3.2002 11.6059 3.82261 10.1226 5.46387 8.38477L5.46289 8.38379C6.42093 7.37524 7.34889 6.29703 8.03809 5.17871C8.72102 4.07056 9.19172 2.88848 9.19922 1.6709ZM4.96387 1.73926C5.1245 2.18411 5.20015 2.62621 5.2002 3.04102C5.2002 4.16633 4.68737 5.25014 3.53418 6.5C2.82583 7.25895 2.12527 8.08734 1.59961 8.94141C1.17298 9.63468 0.843086 10.3738 0.736328 11.1279C0.56893 10.6778 0.500043 10.2452 0.5 9.8418C0.5 8.71643 1.01175 7.63176 2.16504 6.38184L2.16602 6.38281C2.87436 5.62386 3.57495 4.79547 4.10059 3.94141C4.53012 3.24342 4.85943 2.49876 4.96387 1.73926Z" fill="white" stroke="white"/>
</svg>
