<svg width="50" height="50" viewBox="0 0 50 50" fill="none" xmlns="http://www.w3.org/2000/svg">
<path fill-rule="evenodd" clip-rule="evenodd" d="M8.33335 6.25C7.22829 6.25 6.16848 6.68899 5.38708 7.47039C4.60567 8.25179 4.16669 9.3116 4.16669 10.4167V39.5833C4.16669 40.6884 4.60567 41.7482 5.38708 42.5296C6.16848 43.311 7.22829 43.75 8.33335 43.75H41.6667C42.7718 43.75 43.8316 43.311 44.613 42.5296C45.3944 41.7482 45.8334 40.6884 45.8334 39.5833V10.4167C45.8334 9.3116 45.3944 8.25179 44.613 7.47039C43.8316 6.68899 42.7718 6.25 41.6667 6.25H8.33335ZM17.9688 17.9792C18.015 17.5809 18.1537 17.1989 18.3738 16.8637C18.5938 16.5285 18.8892 16.2494 19.2363 16.0486C19.5834 15.8479 19.9726 15.731 20.3728 15.7074C20.7731 15.6837 21.1734 15.754 21.5417 15.9125C22.5917 16.3625 24.8084 17.375 27.6167 18.9958C29.5903 20.1238 31.4964 21.3662 33.325 22.7167C33.6465 22.9559 33.9077 23.267 34.0876 23.6251C34.2675 23.9832 34.3612 24.3784 34.3612 24.7792C34.3612 25.1799 34.2675 25.5751 34.0876 25.9332C33.9077 26.2913 33.6465 26.6024 33.325 26.8417C31.4963 28.1907 29.5902 29.4317 27.6167 30.5583C25.6536 31.705 23.6251 32.7359 21.5417 33.6458C21.1734 33.8048 20.7731 33.8754 20.3726 33.852C19.9722 33.8285 19.5828 33.7117 19.2356 33.5109C18.8884 33.3101 18.5929 33.0308 18.373 32.6953C18.153 32.3599 18.0146 31.9777 17.9688 31.5792C17.7188 29.3212 17.5964 27.0509 17.6021 24.7792C17.6021 21.5479 17.8354 19.1146 17.9688 17.9792Z" fill="white"/>
</svg>
